<svg xmlns="http://www.w3.org/2000/svg" width="24.291" height="24.309" viewBox="0 0 24.291 24.309">
  <path id="noun-date-3669917" d="M100.96,22.918a1.1,1.1,0,0,0-1.091,1.125v1.1H96.562a3.34,3.34,0,0,0-3.318,3.318v15.45a3.338,3.338,0,0,0,3.318,3.316h17.657a3.336,3.336,0,0,0,3.316-3.316V28.462a3.338,3.338,0,0,0-3.316-3.318H110.91v-1.1a1.1,1.1,0,1,0-2.208,0v1.1h-2.208v-1.1a1.105,1.105,0,1,0-2.21,0v1.1h-2.208v-1.1a1.1,1.1,0,0,0-1.117-1.125Zm-4.4,4.435h17.657a1.085,1.085,0,0,1,1.108,1.108v3.307H95.452V28.461a1.087,1.087,0,0,1,1.11-1.108Zm-1.11,6.623h19.876v9.935a1.085,1.085,0,0,1-1.108,1.108H96.562a1.087,1.087,0,0,1-1.11-1.108Zm5.524,2.208a1.1,1.1,0,1,0,1.1,1.1A1.1,1.1,0,0,0,100.976,36.184Zm4.415,0a1.1,1.1,0,1,0,1.1,1.1A1.1,1.1,0,0,0,105.391,36.184Zm4.415,0a1.1,1.1,0,1,0,1.1,1.1A1.1,1.1,0,0,0,109.806,36.184ZM100.975,40.6a1.1,1.1,0,1,0,1.1,1.1A1.1,1.1,0,0,0,100.975,40.6Zm4.415,0a1.1,1.1,0,1,0,1.1,1.1A1.1,1.1,0,0,0,105.391,40.6Zm4.415,0a1.1,1.1,0,1,0,1.1,1.1A1.1,1.1,0,0,0,109.806,40.6Z" transform="translate(-93.244 -22.918)" fill-rule="evenodd"/>
</svg>
