<svg id="call" xmlns="http://www.w3.org/2000/svg" width="27" height="27" viewBox="0 0 27 27">
  <circle id="Ellipse_178" data-name="Ellipse 178" cx="13.5" cy="13.5" r="13.5" fill="#04A62F"/>
  <path id="ic_call_24px" d="M5.269,7.882a9.494,9.494,0,0,0,4.13,4.13l1.379-1.379a.623.623,0,0,1,.639-.15,7.149,7.149,0,0,0,2.237.357.629.629,0,0,1,.627.627v2.187a.629.629,0,0,1-.627.627A10.654,10.654,0,0,1,3,3.627.629.629,0,0,1,3.627,3H5.82a.629.629,0,0,1,.627.627A7.12,7.12,0,0,0,6.8,5.864a.629.629,0,0,1-.157.639Z" transform="translate(4.881 5.103)" fill="#fff"/>
</svg>
