<svg xmlns="http://www.w3.org/2000/svg" width="24.351" height="24.351" viewBox="0 0 24.351 24.351">
  <g id="noun_Cross_2120382" transform="translate(-0.604 -20)">
    <g id="Group_4400" data-name="Group 4400" transform="translate(0.604 20)">
      <path id="Path_20906" data-name="Path 20906" d="M32.161,20A12.176,12.176,0,1,1,20,32.161,12.17,12.17,0,0,1,32.161,20Zm0,10.32,3.561-3.561a1.312,1.312,0,0,1,1.841,1.871l-3.53,3.53,3.53,3.561a1.3,1.3,0,0,1-1.841,1.841l-3.561-3.53-3.53,3.53a1.312,1.312,0,0,1-1.871-1.841l3.561-3.561-3.561-3.53a1.323,1.323,0,0,1,1.871-1.871Z" transform="translate(-20 -20)" fill-rule="evenodd"/>
    </g>
  </g>
</svg>
