<svg xmlns="http://www.w3.org/2000/svg" width="28.239" height="28.239" viewBox="0 0 28.239 28.239">
  <path id="ic_my_location_24px" d="M15.12,9.985a5.134,5.134,0,1,0,5.134,5.134A5.133,5.133,0,0,0,15.12,9.985Zm11.475,3.851A11.545,11.545,0,0,0,16.4,3.644V1H13.836V3.644A11.545,11.545,0,0,0,3.644,13.836H1V16.4H3.644A11.545,11.545,0,0,0,13.836,26.595v2.644H16.4V26.595A11.545,11.545,0,0,0,26.595,16.4h2.644V13.836H26.595ZM15.12,24.1A8.985,8.985,0,1,1,24.1,15.12,8.979,8.979,0,0,1,15.12,24.1Z" transform="translate(-1 -1)"/>
</svg>
