<svg xmlns="http://www.w3.org/2000/svg" xmlns:xlink="http://www.w3.org/1999/xlink" width="234" height="81" viewBox="0 0 234 81">
  <defs>
    <clipPath id="clip-path">
      <ellipse id="Ellipse_453" data-name="Ellipse 453" cx="31.5" cy="31" rx="31.5" ry="31" transform="translate(-0.295 0.242)" fill="none"/>
    </clipPath>
  </defs>
  <g id="Group_12795" data-name="Group 12795" transform="translate(-39 -3576)">
    <g id="Rectangle_9130" data-name="Rectangle 9130" transform="translate(39 3576)" fill="#fff" stroke="#707070" stroke-width="1">
      <rect width="234" height="81" rx="40.5" stroke="none"/>
      <rect x="0.5" y="0.5" width="233" height="80" rx="40" fill="none"/>
    </g>
    <g id="Group_12724" data-name="Group 12724" transform="translate(53.297 3585.258)">
      <g id="Group_4384" data-name="Group 4384" transform="translate(0 0)">
        <g id="Group_4379" data-name="Group 4379" transform="translate(70.146 12.118)">
          <g id="Group_4378" data-name="Group 4378">
            <path id="Path_20169" data-name="Path 20169" d="M2615.075,459.029l.691-.767.332-1.12-.705-1.037-.627.265-.191.486-.323,1.214-.228.959.319.882.3-.28Z" transform="translate(-2509.434 -442.351)" fill="#303030" fill-rule="evenodd"/>
            <path id="Path_20170" data-name="Path 20170" d="M2300.612,458.5l.454-.12.423.1.276.089.185.3.035.38a3.307,3.307,0,0,1-.114.721c-.076.144-.79.919-.79.919l-1.112.861-.133-.056.418-2.627Z" transform="translate(-2251.154 -444.224)" fill="#303030" fill-rule="evenodd"/>
            <path id="Path_20171" data-name="Path 20171" d="M2238.694,457.178l.363-.34.993,1,.069.1-.615,1.088-.706,1.017-.691.85h-.091l.035-1.754.36-1.427Z" transform="translate(-2200.335 -442.954)" fill="#303030" fill-rule="evenodd"/>
            <path id="Path_20172" data-name="Path 20172" d="M2195.851,457.492l-1.116-1.187-.53.488-.626,1.636-.256,1.654.1.692" transform="translate(-2163.596 -442.515)" fill="#303030" fill-rule="evenodd"/>
            <path id="Path_20173" data-name="Path 20173" d="M2041.188,407.406a3.49,3.49,0,0,1-1.317-.108,3.83,3.83,0,0,1-1.189-.563,4.145,4.145,0,0,1-.946-.922,3.57,3.57,0,0,1-.583-1.185c-.12-.439-.223-.826-.315-1.157s-.175-.634-.247-.909-.136-.531-.2-.766-.12-.475-.18-.718-.12-.507-.179-.79-.132-.6-.212-.962a9.152,9.152,0,0,1-1.775.6,7.432,7.432,0,0,1-1.588.188,4.545,4.545,0,0,1-1.652-.307,6.052,6.052,0,0,1-1.476-.826,7.483,7.483,0,0,1-1.257-1.209,8.378,8.378,0,0,1-.97-1.452,7.933,7.933,0,0,1-.623-1.568,5.807,5.807,0,0,1-.223-1.544,8.507,8.507,0,0,1,.5-2.885,10.509,10.509,0,0,1,1.353-2.585,12.282,12.282,0,0,1,2-2.179,14.1,14.1,0,0,1,2.422-1.684,12.732,12.732,0,0,1,2.629-1.081,9.567,9.567,0,0,1,2.625-.383,6.991,6.991,0,0,1,2.406.411,5.126,5.126,0,0,1,1.983,1.3,6.322,6.322,0,0,1,1.34,2.278,10.056,10.056,0,0,1,.495,3.359,6.066,6.066,0,0,1-.251,1.676,10.514,10.514,0,0,1-.682,1.747,12.722,12.722,0,0,1-1.009,1.7,12.986,12.986,0,0,1-1.241,1.512,10.824,10.824,0,0,1-1.357,1.209,5.92,5.92,0,0,1-1.385.786c.192.6.371,1.145.539,1.644s.331.977.487,1.436.307.91.455,1.348.3.89.471,1.357.347.966.535,1.492.391,1.105.615,1.736Zm-4.2-11.742c.383-.215.782-.455,1.193-.714a14.366,14.366,0,0,0,1.2-.842,11.047,11.047,0,0,0,1.093-.982,7.3,7.3,0,0,0,.906-1.125,5.709,5.709,0,0,0,.614-1.265,4.3,4.3,0,0,0,.227-1.4,5.659,5.659,0,0,0-.215-1.672,3.079,3.079,0,0,0-.6-1.125,2.241,2.241,0,0,0-.91-.634,3.21,3.21,0,0,0-1.137-.2,5.653,5.653,0,0,0-1.835.335,10.583,10.583,0,0,0-1.939.9,13.829,13.829,0,0,0-1.855,1.317,11.92,11.92,0,0,0-1.568,1.576,8.344,8.344,0,0,0-1.085,1.676,3.768,3.768,0,0,0-.407,1.628,10.872,10.872,0,0,0,.08,1.237,6.289,6.289,0,0,0,.267,1.257,2.875,2.875,0,0,0,.523.969,1.041,1.041,0,0,0,.83.391,10.984,10.984,0,0,0,1.145-.056c.339-.036.626-.076.866-.124a5.563,5.563,0,0,0,.754-.18v.012s-.016-.1-.048-.287-.068-.435-.112-.726-.084-.606-.12-.946a8.9,8.9,0,0,1-.056-.937,2.934,2.934,0,0,1,.08-.738c.052-.2.144-.291.279-.291.224,0,.5.24.838.722a8.963,8.963,0,0,1,.993,2.222Zm21.437-1.867-1.089-1.137c-.008-.008-.072.048-.2.167s-.287.279-.491.483l-.7.7c-.264.263-.535.531-.818.806s-.571.547-.862.81-.562.5-.814.71a6.2,6.2,0,0,1-.682.511,1.189,1.189,0,0,1-.463.2.255.255,0,0,1-.251-.12.488.488,0,0,1-.084-.263,3.835,3.835,0,0,1,.08-.73c.052-.263.112-.531.18-.8s.127-.527.179-.782,1.635-3.188,1.635-3.4a.459.459,0,0,0-.156-.323c-.144-.144-.268-.275-.375-.395a3.57,3.57,0,0,1-.523-.766q-.108-.216-.227-.491a.978.978,0,0,0-.287-.383.683.683,0,0,0-.443-.156.527.527,0,0,0-.407.156,3.611,3.611,0,0,0-.447.651c-.172.3-1.918,3.335-2.118,3.706s-.411.762-.638,1.169-.455.786-.682,1.137a7.965,7.965,0,0,1-.678.91,1.613,1.613,0,0,1-.646.491c-.048-.008-.084-.048-.112-.116a.819.819,0,0,1-.056-.239c-.008-.092-.012-.188-.012-.291v-.287a2.585,2.585,0,0,1,.14-.654c.092-.3.2-.619.327-.962s.251-.678.371-1.005,1.1-2.137,1.166-2.344l-2.083-1.879c-.072.024-.147.052-.231.088a1.2,1.2,0,0,0-.251.152,1.139,1.139,0,0,0-.235.243,1.341,1.341,0,0,0-.18.379c-.12.407-1.174,2.34-1.385,2.719s-.423.758-.63,1.137a9.949,9.949,0,0,0-.539,1.149,3.281,3.281,0,0,0-.228,1.205,2.842,2.842,0,0,0,.359,1.417,2.121,2.121,0,0,0,1.125.941c.176.072.379.16.606.263s.467.208.718.311a6.356,6.356,0,0,0,.778.263,2.955,2.955,0,0,0,.77.108,1.818,1.818,0,0,0,.738-.164,3.419,3.419,0,0,0,.686-.407,4.511,4.511,0,0,0,.594-.538,6.442,6.442,0,0,0,.459-.554,2.8,2.8,0,0,0,1.053,1.847,3.081,3.081,0,0,0,.945.5,3.577,3.577,0,0,0,1.125.176,1.59,1.59,0,0,0,.647-.156,4.445,4.445,0,0,0,.69-.391,6.589,6.589,0,0,0,.646-.5,6.315,6.315,0,0,0,.519-.507c.088-.1.2-.24.347-.427s.307-.4.487-.646.367-.5.566-.778.4-.551.6-.83q.683-.97,1.484-2.095Zm2.167-9.181q.239-.012.479-.036l.443-.024q.24-.012.443-.012a.976.976,0,0,1,.551.2,2.1,2.1,0,0,1,.527.547,3.218,3.218,0,0,1,.4.814,3.161,3.161,0,0,1,.156,1.006,1.023,1.023,0,0,1-.216.662.915.915,0,0,1-.754.271,3.082,3.082,0,0,1-.97-.152,2.554,2.554,0,0,1-.794-.419,2.009,2.009,0,0,1-.539-.638,1.68,1.68,0,0,1-.2-.8,2.1,2.1,0,0,1,.128-.718,3.342,3.342,0,0,1,.351-.694Zm4.393,8.079a3.9,3.9,0,0,0,.347.431q.179.192.323.323c.1.088.176.16.235.215s.088.092.088.108a8.607,8.607,0,0,1-.567,1.005q-.389.61-.9,1.3t-1.089,1.392q-.581.7-1.145,1.269a7.78,7.78,0,0,1-1.069.922,1.633,1.633,0,0,1-.87.355,2.191,2.191,0,0,1-.579-.1c-.235-.068-.491-.156-.762-.263s-.542-.227-.818-.359-.531-.263-.766-.395a6.634,6.634,0,0,1-.606-.375,1.72,1.72,0,0,1-.335-.287,2.082,2.082,0,0,1-.311-.718,3.406,3.406,0,0,1-.062-.344,4.186,4.186,0,0,1-.034-.542,7.052,7.052,0,0,1,.179-1.456,14.422,14.422,0,0,1,.487-1.7q.305-.874.7-1.724a14.021,14.021,0,0,1,.814-1.52,5.976,5.976,0,0,1,.838-1.085,1.163,1.163,0,0,1,.766-.411.744.744,0,0,1,.407.144,3.461,3.461,0,0,1,.558.507,3.41,3.41,0,0,1,.4.57,4.233,4.233,0,0,1,.287.634q.12.335.227.706a4.341,4.341,0,0,0-.435.6c-.156.251-.315.535-.475.846s-.311.638-.459.985-.279.694-.4,1.041a8.765,8.765,0,0,0-.275,1.017,4.5,4.5,0,0,0-.1.894,1.853,1.853,0,0,0,.072.551,8.192,8.192,0,0,0,1.317-.858q.718-.557,1.436-1.2t1.388-1.313c.447-.443.842-.83,1.185-1.165Zm11.646,2.262a1.547,1.547,0,0,0,.3-.439,1.569,1.569,0,0,0,.124-.467,1.387,1.387,0,0,0-.024-.447,1.045,1.045,0,0,0-.167-.383.351.351,0,0,0-.168-.12,1.243,1.243,0,0,0-.279-.072,1.6,1.6,0,0,0-.343-.012,1.275,1.275,0,0,0-.347.072q-1.46,1.077-2.553,1.771T2071.219,396a14.181,14.181,0,0,1-1.532.7c-.455.172-.9.323-1.328.451a1.712,1.712,0,0,1-.3-.451,3.027,3.027,0,0,1-.191-.543,4.1,4.1,0,0,1-.1-.587c-.02-.2-.032-.391-.032-.575a3.212,3.212,0,0,1,.212-1.1,5.154,5.154,0,0,1,.554-1.1,5.914,5.914,0,0,1,.8-.958,3.889,3.889,0,0,1,.938-.686l1.209,1.712c.056.08.112.156.164.231a.334.334,0,0,0,.243.14c.231-.239.455-.463.666-.67a5.042,5.042,0,0,0,.563-.654,3,3,0,0,0,.387-.742,2.736,2.736,0,0,0,.144-.926,3.07,3.07,0,0,0-.171-1.029,2.666,2.666,0,0,0-.5-.87,2.406,2.406,0,0,0-.8-.6,2.478,2.478,0,0,0-1.061-.219,2.889,2.889,0,0,0-1.053.216,6.679,6.679,0,0,0-1.082.543,10.3,10.3,0,0,0-1.013.714q-.479.383-.838.718a13.416,13.416,0,0,0-1.333,1.437,8.388,8.388,0,0,0-.978,1.536,7.8,7.8,0,0,0-.6,1.7,8.621,8.621,0,0,0-.2,1.923,2.968,2.968,0,0,0,.108.85,2.12,2.12,0,0,0,.335.662,3.221,3.221,0,0,0,.595.594c.243.191.53.4.865.634a7.834,7.834,0,0,0,1.013.579,4.91,4.91,0,0,0,1.022.379,2.025,2.025,0,0,0,.822,0,4.64,4.64,0,0,0,.914-.275,8.131,8.131,0,0,0,.942-.463c.315-.179.615-.355.9-.531s.539-.343.766-.5.415-.287.567-.383c.192-.12.447-.279.762-.479s.65-.427,1.005-.682.71-.531,1.069-.826a9.7,9.7,0,0,0,.969-.91Zm6.547-16.147q-.562,1.628-1.093,3.272t-.994,3.2q-.46,1.556-.814,2.968t-.559,2.574c.24-.3.479-.571.714-.822a4.574,4.574,0,0,1,.766-.658,3.513,3.513,0,0,1,.922-.443,3.885,3.885,0,0,1,1.177-.16,2.177,2.177,0,0,1,.726.12,1.567,1.567,0,0,1,.6.375,1.827,1.827,0,0,1,.407.654,2.676,2.676,0,0,1,.147.946,3.153,3.153,0,0,1-.335,1.472,3.8,3.8,0,0,1-.874,1.117,5.134,5.134,0,0,1-1.2.786,6.206,6.206,0,0,1-1.3.455q.443.6.8,1.089a8.01,8.01,0,0,0,.69.83,2.86,2.86,0,0,0,.662.527,1.484,1.484,0,0,0,.73.188,2.114,2.114,0,0,0,1.03-.3,5.648,5.648,0,0,0,1.041-.758,11.281,11.281,0,0,0,1-1.037c.323-.379.622-.746.9-1.105s.519-.69.734-.993.391-.535.527-.694l.9,1.185c-.223.391-.47.822-.746,1.3s-.575.958-.9,1.448-.67.969-1.042,1.432a9.874,9.874,0,0,1-1.169,1.233,5.727,5.727,0,0,1-1.284.866,3.164,3.164,0,0,1-1.4.331,6.2,6.2,0,0,1-1.489-.164,5.088,5.088,0,0,1-1.161-.431,4,4,0,0,1-.9-.638,6.586,6.586,0,0,1-.706-.79c-.211-.279-.411-.57-.595-.87s-.363-.59-.539-.878a2.166,2.166,0,0,0-.49.682,8.443,8.443,0,0,0-.347.862c-.1.3-.2.606-.3.91a4.156,4.156,0,0,1-.367.818,1.952,1.952,0,0,1-.527.595,1.283,1.283,0,0,1-.778.227,3.447,3.447,0,0,1-.431-.024.652.652,0,0,1-.323-.127.609.609,0,0,1-.2-.3,1.772,1.772,0,0,1-.068-.543,16.305,16.305,0,0,1,.14-1.723q.137-1.161.435-2.741t.766-3.491q.467-1.909,1.113-3.966t1.5-4.185a43.491,43.491,0,0,1,1.9-4.121l2.6-.5Zm-2.514,14.531a4.955,4.955,0,0,0,.8-.287,2.783,2.783,0,0,0,.551-.347.6.6,0,0,0,.251-.479.261.261,0,0,0-.168-.24.723.723,0,0,0-.323-.084.89.89,0,0,0-.411.108,2.794,2.794,0,0,0-.742.551c-.1.1-.176.183-.224.24l.263.538Zm29.433,9.264a6.6,6.6,0,0,1-2.239-.343,5.217,5.217,0,0,1-1.628-.922,5.511,5.511,0,0,1-1.149-1.353,11.057,11.057,0,0,1-.806-1.628,17.342,17.342,0,0,1-.594-1.751q-.252-.9-.515-1.736a16.043,16.043,0,0,0-.574-1.556,4.6,4.6,0,0,0-.754-1.221q-.383,0-.671.012t-.67.036c-.167.614-.323,1.241-.471,1.883s-.3,1.293-.463,1.951-.331,1.321-.519,1.987-.407,1.329-.654,1.983a6.51,6.51,0,0,1-.994-.08,3.03,3.03,0,0,1-.914-.287,1.906,1.906,0,0,1-.678-.562,1.445,1.445,0,0,1-.263-.89,5.448,5.448,0,0,1,.092-.846c.06-.355.139-.758.239-1.213s.22-.953.363-1.5.3-1.113.463-1.708.335-1.2.519-1.819.367-1.233.551-1.847q.981-3.232,2.226-7.038,1.173-.4,2.334-.706.49-.132,1.029-.263c.359-.088.718-.168,1.073-.235s.7-.12,1.042-.16a8.11,8.11,0,0,1,.949-.06,8.8,8.8,0,0,1,2.282.267,4.5,4.5,0,0,1,1.68.822,3.509,3.509,0,0,1,1.037,1.38,4.992,4.992,0,0,1,.351,1.959,5.173,5.173,0,0,1-.383,2.047,5.892,5.892,0,0,1-.993,1.592,6.6,6.6,0,0,1-1.376,1.189,11.366,11.366,0,0,1-1.524.838,11.859,11.859,0,0,1-2.594.834q.515.886,1.029,2.011t1.089,2.286q.575,1.161,1.229,2.254a11.019,11.019,0,0,0,1.428,1.923,4.022,4.022,0,0,0,.463.371c.212.152.427.311.651.479a6.583,6.583,0,0,1,.587.49.648.648,0,0,1,.251.407.392.392,0,0,1-.18.315,1.57,1.57,0,0,1-.431.227,2.873,2.873,0,0,1-.507.132,2.784,2.784,0,0,1-.415.044Zm-7.373-17.8c-.1.391-.235.834-.395,1.333s-.315.99-.471,1.472-.291.926-.4,1.329a3.758,3.758,0,0,0-.168.906,7.421,7.421,0,0,0,1.743-.068,11.09,11.09,0,0,0,1.8-.423,11.391,11.391,0,0,0,1.68-.7,9.428,9.428,0,0,0,1.412-.878,4.8,4.8,0,0,0,.969-.958,1.615,1.615,0,0,0,.359-.945,1.007,1.007,0,0,0-.3-.742,2.2,2.2,0,0,0-.782-.487,4.966,4.966,0,0,0-1.109-.267,9.5,9.5,0,0,0-1.269-.084q-.467,0-.922.036c-.3.024-.587.06-.854.108a7.537,7.537,0,0,0-.738.168,3.257,3.257,0,0,0-.551.2Zm11.682-.191q.24-.012.479-.036l.443-.024c.16-.008.307-.012.443-.012a.976.976,0,0,1,.551.2,2.1,2.1,0,0,1,.527.547,3.218,3.218,0,0,1,.4.814,3.168,3.168,0,0,1,.156,1.006,1.024,1.024,0,0,1-.216.662.916.916,0,0,1-.754.271,3.081,3.081,0,0,1-.969-.152,2.558,2.558,0,0,1-.794-.419,2.012,2.012,0,0,1-.538-.638,1.683,1.683,0,0,1-.2-.8,2.1,2.1,0,0,1,.128-.718,3.353,3.353,0,0,1,.351-.694Zm4.393,8.079c-.343.335-.738.722-1.185,1.165s-.91.882-1.389,1.313-.958.83-1.437,1.2a8.2,8.2,0,0,1-1.316.858,1.844,1.844,0,0,1-.072-.551,4.522,4.522,0,0,1,.1-.894,8.866,8.866,0,0,1,.275-1.017q.173-.521.4-1.041c.147-.347.3-.674.459-.985s.319-.595.475-.846a4.382,4.382,0,0,1,.435-.6q-.107-.371-.227-.706a4.137,4.137,0,0,0-.287-.634,3.422,3.422,0,0,0-.4-.57,3.484,3.484,0,0,0-.559-.507.744.744,0,0,0-.407-.144,1.162,1.162,0,0,0-.766.411,5.976,5.976,0,0,0-.838,1.085,14.021,14.021,0,0,0-.814,1.52q-.4.85-.7,1.724a14.373,14.373,0,0,0-.487,1.7,7.037,7.037,0,0,0-.18,1.456,3.873,3.873,0,0,0,.1.886,2.091,2.091,0,0,0,.311.718,1.743,1.743,0,0,0,.335.287,6.607,6.607,0,0,0,.606.375q.353.2.766.395c.275.132.547.251.818.359s.526.2.762.263a2.188,2.188,0,0,0,.578.1,1.634,1.634,0,0,0,.87-.355,7.779,7.779,0,0,0,1.069-.922q.563-.569,1.145-1.269t1.089-1.392q.509-.695.9-1.3a8.571,8.571,0,0,0,.567-1.005c0-.016-.028-.052-.088-.108l-.236-.215q-.144-.132-.323-.323A3.9,3.9,0,0,1,2118.8,392.7Z" transform="translate(-2026.262 -378.811)" fill="#303030" fill-rule="evenodd"/>
            <path id="Path_20174" data-name="Path 20174" d="M2552.533,404.782a1.13,1.13,0,0,1,.26.527,1.861,1.861,0,0,1,.016.575,1.958,1.958,0,0,1-.136.527,3.36,3.36,0,0,1-.188.383,11.361,11.361,0,0,1-1.185,1.556,14.017,14.017,0,0,1-1.269,1.233,10.527,10.527,0,0,1-1.237.914,11.148,11.148,0,0,1-1.1.61,4.814,4.814,0,0,1-.837.323,1.027,1.027,0,0,1-.455.056q-.347-.132-.634-.263a5.291,5.291,0,0,1-.551-.3,3.433,3.433,0,0,1-.495-.371,3.606,3.606,0,0,1-.463-.507c-.04.016-.056.032-.048.052a.079.079,0,0,0,.044.044c.02.008.032,0,.04-.008s0-.04-.036-.088a4.664,4.664,0,0,0-.7.459q-.341.269-.694.515a3.865,3.865,0,0,1-.73.4,1.722,1.722,0,0,1-.81.12,1.629,1.629,0,0,1-.467-.139q-.3-.126-.646-.311c-.232-.124-.471-.259-.718-.411s-.475-.307-.687-.463-.395-.3-.55-.443a1.665,1.665,0,0,1-.319-.351,2.659,2.659,0,0,1-.347-1.217,4.375,4.375,0,0,1,.152-1.293,6.344,6.344,0,0,1,.507-1.3,12.115,12.115,0,0,1,.742-1.245c.271-.4.554-.774.846-1.125s.562-.662.817-.934a6.427,6.427,0,0,1,1.4-1.149,4.033,4.033,0,0,1,1.492-.551,3.017,3.017,0,0,1,1.476.156,3.54,3.54,0,0,1,1.376.958c.144-.3.3-.65.455-1.061s.319-.838.475-1.281.3-.874.423-1.3.231-.794.311-1.113c.024-.112.064-.283.116-.515s.111-.491.183-.778.152-.587.24-.894a8.764,8.764,0,0,1,.287-.85,3.463,3.463,0,0,1,.331-.646.606.606,0,0,1,.351-.291,4.319,4.319,0,0,1,.61.467q.335.3.658.646c.216.231.415.463.594.7a5.587,5.587,0,0,1,.423.63q-.24.79-.6,1.747t-.79,2.035q-.431,1.077-.91,2.226t-.938,2.322q-.461,1.173-.886,2.334t-.762,2.238a.794.794,0,0,0,.623-.048,4.407,4.407,0,0,0,.846-.479,11.286,11.286,0,0,0,.97-.774c.339-.3.67-.6,1-.914s.639-.614.93-.91.543-.551.758-.766l.431.323Zm-7.038-1.8a5.794,5.794,0,0,0-1.3.838,9.913,9.913,0,0,0-1.213,1.209,11.112,11.112,0,0,0-1.026,1.416,8.6,8.6,0,0,0-.718,1.456,2.113,2.113,0,0,0-.12.455.6.6,0,0,0,.12.455,5.787,5.787,0,0,0,1-.535,9.772,9.772,0,0,0,1.077-.814,10.057,10.057,0,0,0,1.01-1.009,6.326,6.326,0,0,0,.8-1.137,4.226,4.226,0,0,0,.435-1.185,2.234,2.234,0,0,0-.06-1.149Zm10.629.766a1.742,1.742,0,0,0,.718-.239,3.368,3.368,0,0,0,.654-.5,4.381,4.381,0,0,0,.551-.658,5.962,5.962,0,0,0,.411-.694.473.473,0,0,1-.108-.06.159.159,0,0,0-.1-.036,1.641,1.641,0,0,0-.742.287,3.21,3.21,0,0,0-.622.563,4.074,4.074,0,0,0-.471.682,3.76,3.76,0,0,0-.3.658Zm7.229,2.789a4.323,4.323,0,0,0,.5-.918,2.863,2.863,0,0,0,.2-1.069.64.64,0,0,0-.064-.331.326.326,0,0,0-.176-.136.552.552,0,0,0-.231-.024c-.084.008-.164.012-.235.012a1.268,1.268,0,0,0-.623.172,3.682,3.682,0,0,0-.586.407,5.66,5.66,0,0,0-.495.475c-.148.16-.268.283-.355.371q-.491.491-1.149,1.093a17.289,17.289,0,0,1-1.38,1.145,9.175,9.175,0,0,1-1.48.9,3.3,3.3,0,0,1-1.436.367,1.13,1.13,0,0,1-.9-.271,1.142,1.142,0,0,1-.215-.734,2.129,2.129,0,0,1,.1-.706,3.57,3.57,0,0,1,.287-.587l1.1-.463c.391-.164.778-.347,1.157-.551a10.706,10.706,0,0,0,1.089-.671,4.88,4.88,0,0,0,.914-.826,3.839,3.839,0,0,0,.63-1.009,3.094,3.094,0,0,0,.231-1.221,2.166,2.166,0,0,0-.638-1.7,2.726,2.726,0,0,0-1.875-.574,3.977,3.977,0,0,0-1.548.323,6.357,6.357,0,0,0-1.48.878,9.039,9.039,0,0,0-1.316,1.281,9.329,9.329,0,0,0-1.053,1.532,8.811,8.811,0,0,0-.7,1.64,5.41,5.41,0,0,0-.26,1.6,3.72,3.72,0,0,0,.152,1.089,3.6,3.6,0,0,0,.123.342,3.481,3.481,0,0,0,.3.56,3.61,3.61,0,0,0,.65.75,5.318,5.318,0,0,0,.838.6,4.678,4.678,0,0,0,.419.219c.176.084.371.175.586.271s.439.192.667.287.443.18.646.255.383.139.539.188a1.309,1.309,0,0,0,.339.072,2.736,2.736,0,0,0,1.077-.271,8.836,8.836,0,0,0,1.277-.706,15.659,15.659,0,0,0,1.333-.985q.671-.55,1.265-1.113c.4-.375.746-.734,1.057-1.077A9.94,9.94,0,0,0,2563.353,406.541Z" transform="translate(-2446.603 -390.478)" fill="#303030" fill-rule="evenodd"/>
          </g>
        </g>
        <g id="Group_4383" data-name="Group 4383" transform="translate(0)">
          <g id="Group_4382" data-name="Group 4382" clip-path="url(#clip-path)">
            <g id="Mask_Group_1" data-name="Mask Group 1" transform="translate(-2.812 -3.38)">
              <g id="QR_Anim02" data-name="QR Anim02">
                <g id="Group_4380" data-name="Group 4380">
                  <g id="Group_155" data-name="Group 155">
                    <g id="Group_154" data-name="Group 154">
                      <g id="Group_153" data-name="Group 153">
                        <path id="Path_1939" data-name="Path 1939" d="M1681.294,324.232a32.517,32.517,0,1,0-9.524,22.993A31.331,31.331,0,0,0,1681.294,324.232Z" transform="translate(-1616.26 -291.715)" fill="#fdc32e"/>
                      </g>
                    </g>
                  </g>
                </g>
                <g id="Arrow" transform="translate(25.367 7.982)">
                  <g id="Group_162" data-name="Group 162">
                    <g id="Layer_3" data-name="Layer 3">
                      <g id="Group_158" data-name="Group 158">
                        <g id="Group_157" data-name="Group 157">
                          <g id="Group_156" data-name="Group 156">
                            <path id="Path_1940" data-name="Path 1940" d="M1762.846,346.385v8.99l3.792,3.991,4.048-3.991v-8.99h3.835l-7.84-9.814-7.868,9.814Z" transform="translate(-1758.812 -336.571)" fill="#3a7637"/>
                          </g>
                        </g>
                      </g>
                      <g id="Group_161" data-name="Group 161" transform="translate(6.974 8.92)">
                        <g id="Group_160" data-name="Group 160">
                          <g id="Group_159" data-name="Group 159">
                            <path id="Path_1941" data-name="Path 1941" d="M1799.763,396.837v-7.016H1798v7.016l.852.895.909-.895m0-8.721V386.7H1798v1.42Z" transform="translate(-1798.002 -386.696)" fill="#fec22e"/>
                          </g>
                        </g>
                      </g>
                    </g>
                  </g>
                </g>
                <g id="Arrow_L" data-name="Arrow L" transform="translate(11.945 22.554)">
                  <g id="Group_169" data-name="Group 169">
                    <g id="Group_4381" data-name="Group 4381">
                      <g id="Group_165" data-name="Group 165">
                        <g id="Group_164" data-name="Group 164">
                          <g id="Group_163" data-name="Group 163">
                            <path id="Path_1942" data-name="Path 1942" d="M1693.839,422.1l1.42-3.636-11.874,3.465,5.738,10.851,1.591-3.352q2.1.227,5.17,3.636,2.9,3.181,3.409,5.283.057,0,1.648-3.863a51.7,51.7,0,0,1,2.329-5.056,23.968,23.968,0,0,0-4.318-4.261A16.612,16.612,0,0,0,1693.839,422.1Z" transform="translate(-1683.385 -418.463)" fill="#3a7637"/>
                          </g>
                        </g>
                      </g>
                      <g id="Group_168" data-name="Group 168" transform="translate(7.769 5.639)">
                        <g id="Group_167" data-name="Group 167">
                          <g id="Group_166" data-name="Group 166">
                            <path id="Path_1943" data-name="Path 1943" d="M1728.352,452.337l.767-1.6q-.655-.313-1.349-.582l-.724,1.619q.667.266,1.307.568m2.415-.7-.838,1.562a15.878,15.878,0,0,1,5.368,5.454q.552-1.074.881-1.818A17.984,17.984,0,0,0,1730.766,451.641Z" transform="translate(-1727.045 -450.15)" fill="#fec22e"/>
                          </g>
                        </g>
                      </g>
                    </g>
                  </g>
                </g>
                <g id="Arrow_R" data-name="Arrow R" transform="translate(29.953 22.554)">
                  <g id="Group_177" data-name="Group 177">
                    <g id="Group_176" data-name="Group 176">
                      <g id="Layer_1-2" data-name="Layer 1-2">
                        <g id="Group_172" data-name="Group 172">
                          <g id="Group_171" data-name="Group 171">
                            <g id="Group_170" data-name="Group 170">
                              <path id="Path_1944" data-name="Path 1944" d="M1802.879,429.257l1.42,3.522,5.908-10.681-11.7-3.636,1.42,3.465q-7.1,3.807-10.453,8.749-3.238,4.772-4.432,13.01l-.454,5q-.057,4.1,1.861,4.531t6.249-2.77a7.062,7.062,0,0,1-.156-1.648v-.852a26.212,26.212,0,0,1,.8-5.795,26.9,26.9,0,0,1,1.818-5.454,14.593,14.593,0,0,1,3.579-4.6Q1799.016,431.871,1802.879,429.257Z" transform="translate(-1784.584 -418.463)" fill="#3a7637"/>
                            </g>
                          </g>
                        </g>
                        <g id="Group_175" data-name="Group 175" transform="translate(3.109 6.675)">
                          <g id="Group_174" data-name="Group 174">
                            <g id="Group_173" data-name="Group 173">
                              <path id="Path_1945" data-name="Path 1945" d="M1804.858,470.606l-1.647-.483a31.009,31.009,0,0,0-1.15,8.792l1.718-.1a28.75,28.75,0,0,1,1.079-8.209m4.971-8.564-1.307-1.179a22.058,22.058,0,0,0-4.744,7.542l1.633.6a20.135,20.135,0,0,1,4.417-6.959m6.121-4.46-.738-1.6a26.713,26.713,0,0,0-5.312,3.579l1.179,1.292A24.945,24.945,0,0,1,1815.951,457.582Z" transform="translate(-1802.058 -455.977)" fill="#fec22e"/>
                            </g>
                          </g>
                        </g>
                      </g>
                    </g>
                  </g>
                </g>
                <g id="Layer_3-2" data-name="Layer 3-2" transform="translate(57.417 38.987)">
                  <g id="Group_180" data-name="Group 180">
                    <g id="Group_179" data-name="Group 179">
                      <g id="Group_178" data-name="Group 178">
                        <path id="Path_1946" data-name="Path 1946" d="M1944.755,510.808a5.819,5.819,0,1,0,4.1,1.7A5.6,5.6,0,0,0,1944.755,510.808Z" transform="translate(-1938.926 -510.808)" fill="#3a7637"/>
                      </g>
                    </g>
                  </g>
                </g>
                <g id="Layer_4" data-name="Layer 4" transform="translate(49.924 40.819)">
                  <g id="Group_183" data-name="Group 183">
                    <g id="Group_182" data-name="Group 182">
                      <g id="Group_181" data-name="Group 181">
                        <path id="Path_1947" data-name="Path 1947" d="M1908.688,523.136a6.959,6.959,0,1,0,2.045,4.928A6.717,6.717,0,0,0,1908.688,523.136Z" transform="translate(-1896.815 -521.104)" fill="#3a7637"/>
                      </g>
                    </g>
                  </g>
                </g>
                <g id="Layer_5" data-name="Layer 5" transform="translate(46.878 47.752)">
                  <g id="Group_186" data-name="Group 186">
                    <g id="Group_185" data-name="Group 185">
                      <g id="Group_184" data-name="Group 184">
                        <path id="Path_1948" data-name="Path 1948" d="M1883.652,564.012a2.315,2.315,0,1,0-1.648.682A2.245,2.245,0,0,0,1883.652,564.012Z" transform="translate(-1879.697 -560.064)" fill="#3a7637"/>
                      </g>
                    </g>
                  </g>
                </g>
                <g id="Layer_6" data-name="Layer 6" transform="translate(40.018 49.497)">
                  <g id="Group_189" data-name="Group 189">
                    <g id="Group_188" data-name="Group 188">
                      <g id="Group_187" data-name="Group 187">
                        <path id="Path_1949" data-name="Path 1949" d="M1846.979,569.872a5.819,5.819,0,1,0,4.1,1.7A5.6,5.6,0,0,0,1846.979,569.872Z" transform="translate(-1841.15 -569.872)" fill="#3a7637"/>
                      </g>
                    </g>
                  </g>
                </g>
                <g id="Mid" transform="translate(25.811 51.309)">
                  <g id="Group_192" data-name="Group 192">
                    <g id="Group_191" data-name="Group 191">
                      <g id="Group_190" data-name="Group 190">
                        <path id="Path_1950" data-name="Path 1950" d="M1776.892,582.361a8.832,8.832,0,0,0-6.114-2.3,9.887,9.887,0,0,0-6.623,2.219,7.4,7.4,0,0,0-2.843,6.015,8.973,8.973,0,0,0,17.946,0A7.784,7.784,0,0,0,1776.892,582.361Z" transform="translate(-1761.311 -580.053)" fill="#3a7637"/>
                      </g>
                    </g>
                  </g>
                </g>
                <g id="Layer_8" data-name="Layer 8" transform="translate(1.088 38.987)">
                  <g id="Group_195" data-name="Group 195">
                    <g id="Group_194" data-name="Group 194">
                      <g id="Group_193" data-name="Group 193">
                        <path id="Path_1951" data-name="Path 1951" d="M1628.2,510.808a5.819,5.819,0,1,0,4.1,1.7A5.6,5.6,0,0,0,1628.2,510.808Z" transform="translate(-1622.373 -510.808)" fill="#3a7637"/>
                      </g>
                    </g>
                  </g>
                </g>
                <g id="Layer_9" data-name="Layer 9" transform="translate(6.349 40.819)">
                  <g id="Group_198" data-name="Group 198">
                    <g id="Group_197" data-name="Group 197">
                      <g id="Group_196" data-name="Group 196">
                        <path id="Path_1952" data-name="Path 1952" d="M1663.811,523.136a6.959,6.959,0,1,0,2.045,4.928A6.717,6.717,0,0,0,1663.811,523.136Z" transform="translate(-1651.938 -521.104)" fill="#3a7637"/>
                      </g>
                    </g>
                  </g>
                </g>
                <g id="Layer_10" data-name="Layer 10" transform="translate(18.648 47.736)">
                  <g id="Group_201" data-name="Group 201">
                    <g id="Group_200" data-name="Group 200">
                      <g id="Group_199" data-name="Group 199">
                        <path id="Path_1953" data-name="Path 1953" d="M1721.058,562.293a2.328,2.328,0,1,0,.682-1.633A2.244,2.244,0,0,0,1721.058,562.293Z" transform="translate(-1721.058 -559.978)" fill="#3a7637"/>
                      </g>
                    </g>
                  </g>
                </g>
                <g id="Layer_11" data-name="Layer 11" transform="translate(18.521 49.923)">
                  <g id="Group_204" data-name="Group 204">
                    <g id="Group_203" data-name="Group 203">
                      <g id="Group_202" data-name="Group 202">
                        <path id="Path_1954" data-name="Path 1954" d="M1722.031,573.972a5.795,5.795,0,1,0,4.1-1.7A5.6,5.6,0,0,0,1722.031,573.972Z" transform="translate(-1720.34 -572.267)" fill="#3a7637"/>
                      </g>
                    </g>
                  </g>
                </g>
                <g id="CoverGreen" transform="translate(9.143 49.326)">
                  <g id="Group_207" data-name="Group 207">
                    <g id="Group_206" data-name="Group 206">
                      <g id="Group_205" data-name="Group 205">
                        <path id="Path_1955" data-name="Path 1955" d="M1674.631,568.913a6.983,6.983,0,1,0,4.928,2.045A6.718,6.718,0,0,0,1674.631,568.913Z" transform="translate(-1667.639 -568.913)" fill="#3a7637"/>
                      </g>
                    </g>
                  </g>
                </g>
                <g id="Layer_13" data-name="Layer 13" transform="translate(15.41 55.009)">
                  <g id="Group_210" data-name="Group 210">
                    <g id="Group_209" data-name="Group 209">
                      <g id="Group_208" data-name="Group 208">
                        <path id="Path_1956" data-name="Path 1956" d="M1702.857,607.818a6.983,6.983,0,1,0,2.045-4.928A6.717,6.717,0,0,0,1702.857,607.818Z" transform="translate(-1702.857 -600.845)" fill="#3a7637"/>
                      </g>
                    </g>
                  </g>
                </g>
                <g id="Layer_14" data-name="Layer 14" transform="translate(45.219 49.309)">
                  <g id="Group_213" data-name="Group 213">
                    <g id="Group_212" data-name="Group 212">
                      <g id="Group_211" data-name="Group 211">
                        <path id="Path_1957" data-name="Path 1957" d="M1884.339,575.807a6.982,6.982,0,1,0-2.045,4.929A6.719,6.719,0,0,0,1884.339,575.807Z" transform="translate(-1870.373 -568.815)" fill="#3a7637"/>
                      </g>
                    </g>
                  </g>
                </g>
                <g id="Layer_15" data-name="Layer 15" transform="translate(36.743 55.022)">
                  <g id="Group_216" data-name="Group 216">
                    <g id="Group_215" data-name="Group 215">
                      <g id="Group_214" data-name="Group 214">
                        <path id="Path_1958" data-name="Path 1958" d="M1834.619,602.952a6.96,6.96,0,1,0,2.045,4.929A6.717,6.717,0,0,0,1834.619,602.952Z" transform="translate(-1822.745 -600.921)" fill="#3a7637"/>
                      </g>
                    </g>
                  </g>
                </g>
              </g>
            </g>
          </g>
        </g>
      </g>
      <g id="Group_4387" data-name="Group 4387" transform="translate(90.454 38.189)">
        <text id="Carpool" transform="translate(0 6)" fill="#303030" font-size="6" font-family="Roboto-Medium, Roboto" font-weight="500"><tspan x="0" y="0">Carpool</tspan></text>
        <g id="Group_4385" data-name="Group 4385" transform="translate(31.351 5.546)">
          <circle id="Ellipse_454" data-name="Ellipse 454" cx="0.826" cy="0.826" r="0.826" fill="#303030"/>
        </g>
        <g id="Group_4386" data-name="Group 4386" transform="translate(69.84 5.546)">
          <circle id="Ellipse_455" data-name="Ellipse 455" cx="0.826" cy="0.826" r="0.826" fill="#303030"/>
        </g>
        <text id="Bikepool" transform="translate(35.878 6.07)" fill="#303030" font-size="6" font-family="Roboto-Medium, Roboto" font-weight="500"><tspan x="0" y="0">Bikepool</tspan></text>
        <text id="Taxi" transform="translate(73.275 6)" fill="#303030" font-size="6" font-family="Roboto-Medium, Roboto" font-weight="500"><tspan x="0" y="0">Taxi</tspan></text>
      </g>
    </g>
  </g>
</svg>
